<?xml version="1.0"?>
<svg width="406" height="491" xmlns="http://www.w3.org/2000/svg" xmlns:svg="http://www.w3.org/2000/svg" enable-background="new 0 0 612 792" version="1.1" xml:space="preserve">
 <g class="layer" display="inline">
  <title>Layer 1</title>
  <path d="m196.11,7.21c0,0 -49,93 -73,152s-50,125 -59,163s-22.31,100 -21,120c1.15,17.45 1.21,20.43 9.21,32.43c4.79,7.19 11.98,11.09 22.79,11.57c12.99,0.57 32.59,-10.79 46,-18c14.22,-7.66 29.81,-20.55 52,-23c23.88,-2.65 36,-4 56,2s30.6,9.75 41,17c11.66,8.12 12.08,10.73 20.18,17.01c9.68,7.5 15.1,8.68 25.29,9.06s18.12,-2.27 24.54,-12.46c6.41,-10.19 11,-26.26 12.8,-40.05c1.62,-12.38 0.03,-56.2 -6.76,-87.15s-5.66,-25.29 -12.46,-53.6s-18.49,-68.7 -40.01,-119.28s-27.55,-63.42 -44.54,-97.77s-34.73,-62.28 -39.26,-69.83c-4.53,-7.55 -8.12,-14.64 -13.78,-2.93z" id="svg_1"/>
  <path d="m295.56,221.49c-40.47,-3.62 -35.81,-2.78 -80.75,-1.94c-50.21,0.94 -103.92,9.39 -103.92,9.39c-14.78,38.2 -27.1,72.67 -32.77,96.58c-12.76,53.87 -20.71,97.57 -20.71,113.47c0,0.83 0.03,1.59 0.07,2.27l0.06,0.94c1.04,15.87 1.04,15.87 6.76,24.45c1.55,2.32 3.84,4.83 11.45,5.17c7.88,0.35 25.48,-9.21 34.93,-14.34l3.61,-1.96c2.97,-1.6 6.17,-3.55 9.56,-5.62c12.24,-7.47 27.48,-16.77 47.68,-19.01c24.32,-2.69 38.94,-4.31 61.72,2.52c18.95,5.69 32.32,10.08 45.09,18.98c7.8,5.43 11.37,8.88 14.52,11.93c1.9,1.83 3.53,3.41 6.25,5.52c7.03,5.45 9.51,5.77 17,6.05c6.37,0.23 8.8,-0.95 11.82,-5.74c4.71,-7.48 9.01,-21.24 10.71,-34.24c0.29,-2.21 0.45,-6.1 0.45,-11.15c0,-17.17 -1.87,-47.71 -7,-71.06c-5.06,-23.03 -5.65,-25.49 -8.52,-37.29l-3.87,-16.03c-6.29,-26.19 -13.93,-51.39 -24.14,-78.89z" fill="#FFFFFF" id="svg_2"/>
  <path d="m93.37,249.53c0,0 -6.72,3.78 -14.27,10.07s-8.4,8.81 -19.73,15.11s-24.76,13.01 -35.67,20.99s-18.89,13.85 -20.57,15.94s-3.36,3.78 -0.84,10.5s1.68,5.45 6.3,13.85s14.27,21.4 14.27,21.4s-1.68,0.84 -1.26,7.14s2.1,9.23 5.03,10.49s0.42,4.62 -0.83,11.33s-0.42,11.76 -0.42,11.76s-8.4,0 -13.86,1.68s-9.65,1.67 -9.23,7.13s0.42,7.56 7.98,12.17s5.45,5.04 13.01,6.3s15.11,4.61 20.56,-0.42s14.27,-64.22 14.27,-64.22s-5.45,-7.97 -8.39,-10.07s-8.4,-5.04 -10.07,-3.78s-5.46,2.94 -5.46,2.94s-14.27,-22.25 -16.79,-26.86s-5.04,-4.2 -1.68,-7.14s7.56,-7.97 15.11,-13.43s16.79,-11.33 22.25,-14.69s11.75,-6.71 11.75,-6.71s-1.26,-2.52 2.1,4.61s6.29,14.69 7.97,15.95s13.43,-38.19 13.43,-38.19l5.04,-13.85z" id="svg_3"/>
  <path d="m309.52,237.78c0,0 9.24,2.09 16.37,7.97c7.14,5.88 8.4,4.2 12.18,10.07s5.03,7.56 5.03,7.56s24.76,18.89 31.9,25.18c7.14,6.3 17.21,14.69 22.24,20.99s8.4,9.65 6.3,14.27c-2.1,4.61 -7.97,10.91 -11.75,15.11s-11.33,12.59 -11.33,12.59s1.68,6.72 0.42,13.01c-1.26,6.3 -3.36,10.91 -3.36,10.91s6.3,4.62 7.97,11.34c1.68,6.71 1.68,13.85 1.68,13.85s9.66,0.84 13.44,3.35s5.87,4.62 2.51,8.4s-10.07,9.65 -16.37,14.27c-6.29,4.62 -7.13,7.14 -12.59,9.65c-5.45,2.52 -7.13,1.68 -13.01,-0.84c-5.87,-2.51 -10.91,-5.87 -10.91,-5.87l-9.66,-73.45l12.6,-0.42c0,0 -1.26,-4.2 3.36,-7.56c4.61,-3.36 10.91,-2.94 13,-3.36c2.11,-0.41 4.2,-6.71 8.82,-12.17c4.62,-5.45 9.23,-7.97 9.23,-10.91s-5.03,-11.33 -7.13,-14.27c-2.1,-2.94 -17.63,-18.89 -20.99,-22.25s-16.37,-11.75 -16.37,-11.75s0.42,0 -2.93,9.24c-3.36,9.23 -7.56,16.37 -10.08,19.3c-2.52,2.94 -22.24,-64.21 -22.24,-64.21" id="svg_4"/>
  <ellipse cx="207" cy="223.99" fill="#B30838" id="svg_5" rx="74.43" ry="65.27" stroke="#000000" stroke-width="16"/>
  <ellipse cx="246.19" cy="170.7" fill="#FFFFFF" id="svg_6" rx="19.85" ry="13.74" transform="matrix(0.9225 -0.386 0.386 0.9225 -116.92 134.611)"/>
 </g>
</svg>