<?xml version="1.0" encoding="utf-8"?>
<!-- Generator: Adobe Illustrator 22.1.0, SVG Export Plug-In . SVG Version: 6.00 Build 0)  -->
<svg version="1.1" id="Layer_1" xmlns="http://www.w3.org/2000/svg" xmlns:xlink="http://www.w3.org/1999/xlink" x="0px" y="0px"
	 viewBox="0 0 256 256" style="enable-background:new 0 0 256 256;" xml:space="preserve">
<style type="text/css">
	.st0{fill:#231F20;}
	.st1{fill:#FFEFE4;}
	.st2{fill:#69EBFC;}
	.st3{fill:#5FD4E3;}
	.st4{fill:#A1F1FC;}
	.st5{fill:#D476E2;}
	.st6{fill:#B665C2;}
	.st7{fill:#EA82FA;}
	.st8{fill:#FFF7F2;}
	.st9{fill:#FF8354;}
	.st10{fill:#FFA172;}
	.st11{fill:#6770E6;}
	.st12{fill:#5861C7;}
	.st13{fill:#E0734A;}
	.st14{fill:#EDD4C2;}
	.st15{fill:#CC6944;}
	.st16{fill:#858EFF;}
	.st17{fill:#C76642;}
	.st18{fill:#FFFFFF;}
	.st19{fill:#FFDEC7;}
	.st20{fill:#4E56B0;}
	.st21{fill:#94529E;}
	.st22{fill:#41B6C5;}
	.st23{fill:#9847A4;}
	.st24{fill:#C2552C;}
	.st25{fill:#CFB6A4;}
</style>
<g>
	<path class="st11" d="M109.636,29.091H14.545C6.512,29.091,0,22.579,0,14.545v0C0,6.512,6.512,0,14.545,0l95.091,0V29.091z"/>
	<path class="st16" d="M14.545,0C6.512,0,0,6.512,0,14.545c0,0.933,0.096,1.843,0.264,2.727C1.542,10.544,7.445,5.455,14.545,5.455
		h95.091V0H14.545z"/>
	<path class="st11" d="M109.636,74.545h-86c-8.033,0-14.545-6.512-14.545-14.545v0c0-8.033,6.512-14.545,14.545-14.545h86V74.545z"
		/>
	<path class="st11" d="M109.636,120H41.818c-8.033,0-14.545-6.512-14.545-14.545v0c0-8.033,6.512-14.545,14.545-14.545h67.818V120z"
		/>
	<path class="st2" d="M241.455,120H103.273c-8.033,0-14.545-6.512-14.545-14.545V14.545C88.727,6.512,95.239,0,103.273,0h138.182
		C249.488,0,256,6.512,256,14.545v90.909C256,113.488,249.488,120,241.455,120z"/>
	<path class="st4" d="M241.455,0H103.273C95.24,0,88.727,6.512,88.727,14.545V20c0-8.033,6.512-14.545,14.545-14.545h138.182
		C249.488,5.455,256,11.967,256,20v-5.455C256,6.512,249.488,0,241.455,0z"/>
	<path class="st3" d="M179.997,82.906c-4.321,3.954-10.947,3.954-15.268,0L88.727,13.355v13.396l68.846,63.002l7.202,6.561
		c4.16,3.512,10.225,3.55,14.427,0.116l7.208-6.555l69.426-63.532c0.055-0.075,0.11-0.153,0.165-0.229V15.478
		c0-0.677-0.058-1.339-0.142-1.992L179.997,82.906z"/>
	<path class="st11" d="M146.364,165.091h95.091c8.033,0,14.545-6.512,14.545-14.545v0c0-8.033-6.512-14.545-14.545-14.545h-95.091
		V165.091z"/>
	<path class="st11" d="M146.364,210.545h86c8.033,0,14.545-6.512,14.545-14.545v0c0-8.033-6.512-14.545-14.545-14.545h-86V210.545z"
		/>
	<path class="st11" d="M146.364,256h67.818c8.033,0,14.545-6.512,14.545-14.545v0c0-8.033-6.512-14.545-14.545-14.545h-67.818V256z"
		/>
	<path class="st12" d="M228.463,238.727c0.168,0.884,0.264,1.794,0.264,2.727c0,8.033-6.512,14.545-14.545,14.545h-67.818v-5.455
		h67.818C221.282,250.545,227.185,245.456,228.463,238.727z"/>
	<path class="st5" d="M14.545,256h138.182c8.033,0,14.545-6.512,14.545-14.545v-90.909c0-8.033-6.512-14.545-14.545-14.545H14.545
		C6.512,136,0,142.512,0,150.545l0,90.909C0,249.488,6.512,256,14.545,256z"/>
	<path class="st6" d="M14.545,249.636h138.182c8.033,0,14.545-6.512,14.545-14.545v6.364c0,8.033-6.512,14.545-14.545,14.545H14.545
		C6.512,256,0,249.488,0,241.455l0-6.364C0,243.124,6.512,249.636,14.545,249.636z"/>
	<path class="st6" d="M76.003,218.906c4.321,3.954,10.947,3.954,15.268,0l76.003-69.551v13.396l-68.846,63.002l-7.202,6.561
		c-4.16,3.512-10.225,3.55-14.427,0.116l-7.208-6.555L0.165,162.342c-0.055-0.075-0.11-0.153-0.165-0.229l0-10.635
		c0-0.677,0.058-1.339,0.142-1.992L76.003,218.906z"/>
</g>
</svg>
