<?xml version="1.0" encoding="UTF-8"?>
<!DOCTYPE svg PUBLIC "-//W3C//DTD SVG 1.1//EN" "http://www.w3.org/Graphics/SVG/1.1/DTD/svg11.dtd">
<!-- Creator: CorelDRAW -->
<svg xmlns="http://www.w3.org/2000/svg" xml:space="preserve" width="6.82666in" height="6.82666in" style="shape-rendering:geometricPrecision; text-rendering:geometricPrecision; image-rendering:optimizeQuality; fill-rule:evenodd; clip-rule:evenodd"
viewBox="0 0 6.82666 6.82666"
 xmlns:xlink="http://www.w3.org/1999/xlink">
 <defs>
  <style type="text/css">
   <![CDATA[
    .fil0 {fill:#EF5350}
    .fil1 {fill:#FFFFFE}
   ]]>
  </style>
 </defs>
 <g id="Layer_x0020_1">
  <metadata id="CorelCorpID_0Corel-Layer"/>
  <rect class="fil0" width="6.82666" height="6.82666" rx="0.853335" ry="0.853335"/>
  <path class="fil1" d="M0.881598 2.88696l2.9584 0 0 0.884988 -2.9584 0 0 -0.884988zm0.395528 0.336488c0.0585512,0 0.106012,0.0474606 0.106012,0.106008 0,0.0585472 -0.0474606,0.106012 -0.106012,0.106012 -0.0585472,0 -0.106008,-0.0474646 -0.106008,-0.106012 0,-0.0585472 0.0474606,-0.106008 0.106008,-0.106008zm0.905122 0c0.0585472,0 0.106012,0.0474606 0.106012,0.106008 0,0.0585472 -0.0474646,0.106012 -0.106012,0.106012 -0.0585472,0 -0.106008,-0.0474646 -0.106008,-0.106012 0,-0.0585472 0.0474606,-0.106008 0.106008,-0.106008zm-0.452559 0c0.0585472,0 0.106008,0.0474606 0.106008,0.106008 0,0.0585472 -0.0474606,0.106012 -0.106008,0.106012 -0.0585472,0 -0.106012,-0.0474646 -0.106012,-0.106012 0,-0.0585472 0.0474646,-0.106008 0.106012,-0.106008z"/>
  <path class="fil1" d="M0.881598 3.98219l2.9584 0 0 0.884992 -2.9584 0 0 -0.884992zm0.395528 0.336488c0.0585512,0 0.106012,0.0474606 0.106012,0.106008 0,0.0585472 -0.0474606,0.106012 -0.106012,0.106012 -0.0585472,0 -0.106008,-0.0474646 -0.106008,-0.106012 0,-0.0585472 0.0474606,-0.106008 0.106008,-0.106008zm0.905122 0c0.0585472,0 0.106012,0.0474606 0.106012,0.106008 0,0.0585472 -0.0474646,0.106012 -0.106012,0.106012 -0.0585472,0 -0.106008,-0.0474646 -0.106008,-0.106012 0,-0.0585472 0.0474606,-0.106008 0.106008,-0.106008zm-0.452559 0c0.0585472,0 0.106008,0.0474606 0.106008,0.106008 0,0.0585472 -0.0474606,0.106012 -0.106008,0.106012 -0.0585472,0 -0.106012,-0.0474646 -0.106012,-0.106012 0,-0.0585472 0.0474646,-0.106008 0.106012,-0.106008z"/>
  <path class="fil1" d="M0.881598 5.07741l2.9584 0 0 0.884992 -2.9584 0 0 -0.884992zm0.395528 0.336488c0.0585512,0 0.106012,0.0474606 0.106012,0.106008 0,0.0585472 -0.0474606,0.106012 -0.106012,0.106012 -0.0585472,0 -0.106008,-0.0474646 -0.106008,-0.106012 0,-0.0585472 0.0474606,-0.106008 0.106008,-0.106008zm0.905122 0c0.0585472,0 0.106012,0.0474606 0.106012,0.106008 0,0.0585472 -0.0474646,0.106012 -0.106012,0.106012 -0.0585472,0 -0.106008,-0.0474646 -0.106008,-0.106012 0,-0.0585472 0.0474606,-0.106008 0.106008,-0.106008zm-0.452559 0c0.0585472,0 0.106008,0.0474606 0.106008,0.106008 0,0.0585472 -0.0474606,0.106012 -0.106008,0.106012 -0.0585472,0 -0.106012,-0.0474646 -0.106012,-0.106012 0,-0.0585472 0.0474646,-0.106008 0.106012,-0.106008z"/>
  <path class="fil1" d="M4.00289 1.30171l0 0.00894094c-3.93701e-006,0.0270236 0.0101535,0.0528268 0.0293307,0.0719961l0.15276 0.152768 -0.0362835 0.0645906c-0.016622,0.0295906 -0.0314921,0.0601535 -0.0444803,0.0915118 -0.0129291,0.0312047 -0.0240472,0.0631535 -0.0332283,0.0956614l-0.0201024 0.0711693 -0.215709 0c-0.0271496,0 -0.0527441,0.0107441 -0.0719173,0.0299213 -0.0191811,0.0191811 -0.0299291,0.0447795 -0.0299291,0.0719291l0 0.122209c0,0.0271496 0.010752,0.052748 0.0299331,0.0719252 0.0191732,0.0191772 0.0447677,0.0299213 0.0719134,0.0299213l0.215701 0 0.0201063 0.0711654c0.0091811,0.0324921 0.0202992,0.0644331 0.0332205,0.095626 0.0129921,0.0313701 0.0278701,0.0619488 0.0445,0.0915512l0.0362874 0.0645906 -0.152772 0.152768c-0.0191969,0.0191929 -0.0297126,0.0448819 -0.0297126,0.0720039 0,0.027126 0.0105197,0.052815 0.0297165,0.0720118l0.0864134 0.0864173c0.0191969,0.0191969 0.0448819,0.0297126 0.0720079,0.0297126 0.027122,0 0.052811,-0.0105197 0.0720039,-0.0297165l0.152764 -0.15276 0.0645906 0.0362874c0.0295984,0.0166299 0.0601732,0.0315039 0.0915315,0.0444921 0.0312008,0.0129252 0.0631457,0.0240394 0.0956457,0.0332244l0.0711693 0.0201024 0 0.215701c0,0.0271496 0.0107441,0.0527441 0.0299213,0.0719173 0.0191811,0.0191811 0.0447795,0.0299291 0.0719291,0.0299291l0.122209 0c0.0271496,0 0.052748,-0.010752 0.0719252,-0.0299331 0.0191772,-0.0191732 0.0299213,-0.0447677 0.0299213,-0.0719134l0 -0.215697 0.0711654 -0.0201063c0.0324961,-0.00918504 0.0644409,-0.0202992 0.0956378,-0.0332244 0.0313701,-0.0129921 0.0619449,-0.0278701 0.0915472,-0.0445l0.0645866 -0.0362795 0.152768 0.15276c0.0191693,0.0191772 0.0449724,0.0293346 0.0719961,0.0293307l0.00893701 0c0.0237913,-0.00204724 0.0460039,-0.0122638 0.0630787,-0.0293346l0.0864173 -0.0864134c0.0191929,-0.0191929 0.0297126,-0.0448858 0.0297126,-0.0720079 0,-0.027122 -0.0105197,-0.052811 -0.0297165,-0.0720039l-0.15276 -0.152768 0.0362835 -0.0645906c0.016622,-0.0295945 0.0315039,-0.0601614 0.0444921,-0.0915197 0.0129252,-0.0312008 0.0240394,-0.0631496 0.0332205,-0.0956535l0.0201063 -0.0711693 0.215705 0c0.0271457,0 0.0527402,-0.0107441 0.0719134,-0.0299213 0.0191811,-0.0191772 0.0299331,-0.0447756 0.0299331,-0.0719252l0 -0.122209c0,-0.0271496 -0.010748,-0.052748 -0.0299291,-0.0719291 -0.0191732,-0.0191772 -0.0447677,-0.0299213 -0.0719173,-0.0299213l-0.215709 0 -0.0201063 -0.0711693c-0.0091811,-0.0325039 -0.0202913,-0.0644488 -0.0332205,-0.0956535 -0.0129882,-0.0313543 -0.0278661,-0.0619252 -0.0444882,-0.0915197l-0.0362835 -0.0645906 0.15276 -0.152768c0.0191969,-0.0191929 0.0297165,-0.0448819 0.0297165,-0.0720039 0,-0.027126 -0.0105157,-0.052811 -0.0297126,-0.0720079l-0.0864173 -0.0864134c-0.0191969,-0.0191969 -0.0448858,-0.0297165 -0.0720118,-0.0297165 -0.0271181,0 -0.052811,0.0105197 -0.0720039,0.0297126l-0.152764 0.152768 -0.0645945 -0.0362874c-0.0295906,-0.016626 -0.0601575,-0.0314961 -0.0915118,-0.0444843 -0.0312087,-0.0129291 -0.0631614,-0.0240433 -0.0956693,-0.0332283l-0.0711614 -0.0201063 0 -0.215705c0,-0.0271457 -0.0107441,-0.0527402 -0.0299213,-0.0719134 -0.0191772,-0.0191811 -0.0447756,-0.0299331 -0.0719252,-0.0299331l-0.122209 0c-0.0271496,0 -0.052748,0.010748 -0.0719291,0.0299291 -0.0191772,0.0191732 -0.0299213,0.0447677 -0.0299213,0.0719173l0 0.215709 -0.0711693 0.0201024c-0.0324961,0.00917717 -0.0644331,0.0202913 -0.095626,0.0332126 -0.0313661,0.0129961 -0.0619409,0.0278701 -0.0915433,0.0445l-0.0645906 0.0362835 -0.152772 -0.152764c-0.0191929,-0.0191969 -0.0448819,-0.0297165 -0.0720039,-0.0297165 -0.027126,0 -0.052811,0.0105157 -0.0720079,0.0297126l-0.0864134 0.0864173c-0.0170748,0.0170787 -0.0272874,0.0392874 -0.0293346,0.0630787zm0.898413 0.134205c0.161642,0 0.307988,0.0655315 0.413929,0.171461 0.105929,0.105941 0.171461,0.252287 0.171461,0.413929 0,0.161638 -0.0655315,0.307992 -0.171461,0.413925 -0.105941,0.105937 -0.252287,0.171461 -0.413929,0.171461 -0.161638,0 -0.307992,-0.0655236 -0.413925,-0.171461 -0.105937,-0.105933 -0.171461,-0.252287 -0.171461,-0.413925 0,-0.161642 0.0655236,-0.307988 0.171461,-0.413929 0.105933,-0.105929 0.252287,-0.171461 0.413925,-0.171461z"/>
  <path class="fil1" d="M4.50943 4.03258l0 0.00581496c-3.93701e-006,0.0175787 0.00660236,0.0343622 0.0190748,0.0468307l0.0993701 0.0993701 -0.0236024 0.0420157c-0.010811,0.019248 -0.0204843,0.0391299 -0.0289331,0.0595236 -0.00841339,0.0202992 -0.0156417,0.0410827 -0.0216142,0.0622283l-0.0130787 0.0462913 -0.140311 0c-0.0176575,0 -0.0343071,0.00699213 -0.0467795,0.0194646 -0.0124764,0.0124764 -0.0194685,0.029126 -0.0194685,0.0467874l0 0.0794961c0,0.0176575 0.00699213,0.0343071 0.0194685,0.0467835 0.0124724,0.0124724 0.029122,0.0194646 0.0467795,0.0194646l0.140307 0 0.0130787 0.0462874c0.00597244,0.0211378 0.0132047,0.0419134 0.0216102,0.0622047 0.00845276,0.0204055 0.0181299,0.0402953 0.0289449,0.0595512l0.0236024 0.0420157 -0.099374 0.0993701c-0.0124843,0.0124843 -0.0193268,0.0291929 -0.0193268,0.0468386 0,0.0176417 0.00684252,0.0343543 0.0193307,0.0468386l0.0562087 0.0562126c0.0124882,0.0124882 0.0291969,0.0193268 0.0468386,0.0193268 0.0176457,0 0.0343543,-0.00684252 0.0468386,-0.0193268l0.0993701 -0.0993701 0.0420157 0.0236063c0.019252,0.010815 0.0391378,0.0204921 0.0595354,0.0289409 0.0202992,0.00840945 0.0410748,0.0156339 0.0622165,0.0216102l0.0462913 0.0130787 0 0.140307c0,0.0176575 0.00699213,0.0343071 0.0194646,0.0467795 0.0124764,0.0124764 0.029126,0.0194685 0.0467874,0.0194685l0.0794961 0c0.0176575,0 0.0343071,-0.00699213 0.0467835,-0.0194724 0.0124724,-0.0124724 0.0194646,-0.0291181 0.0194646,-0.0467756l0 -0.140307 0.0462874 -0.0130787c0.0211378,-0.00597638 0.0419173,-0.0132008 0.0622126,-0.0216102 0.0204055,-0.00845276 0.0402953,-0.0181299 0.0595472,-0.0289449l0.0420157 -0.0236024 0.0993661 0.0993701c0.0124724,0.0124724 0.0292559,0.0190787 0.0468307,0.0190787l0.00581496 0c0.0154764,-0.00133465 0.0299252,-0.00797638 0.0410315,-0.0190827l0.0562126 -0.0562087c0.0124843,-0.0124843 0.0193268,-0.0291969 0.0193268,-0.0468386 0,-0.0176457 -0.00684252,-0.0343543 -0.0193268,-0.0468386l-0.0993701 -0.0993701 0.0236024 -0.0420157c0.010811,-0.019248 0.0204921,-0.0391339 0.0289409,-0.0595315 0.00840945,-0.0202953 0.0156378,-0.0410787 0.0216102,-0.0622205l0.0130787 -0.0462913 0.140311 0c0.0176575,0 0.0343031,-0.00699213 0.0467756,-0.0194646 0.0124803,-0.0124764 0.0194724,-0.029126 0.0194724,-0.0467835l0 -0.0794961c0,-0.0176614 -0.00699213,-0.034311 -0.0194685,-0.0467874 -0.0124724,-0.0124724 -0.029122,-0.0194646 -0.0467795,-0.0194646l-0.140315 0 -0.0130787 -0.0462913c-0.00597244,-0.0211417 -0.0131969,-0.0419252 -0.0216063,-0.0622205 -0.00845276,-0.0203976 -0.0181299,-0.0402795 -0.0289409,-0.0595315l-0.0236024 -0.0420157 0.0993701 -0.0993701c0.0124843,-0.0124843 0.0193268,-0.0291929 0.0193268,-0.0468386 0,-0.0176417 -0.00683858,-0.0343504 -0.0193268,-0.0468346l-0.0562126 -0.0562126c-0.0124843,-0.0124882 -0.0291969,-0.0193307 -0.0468386,-0.0193307 -0.0176417,0 -0.0343543,0.00684252 -0.0468386,0.0193268l-0.0993661 0.099374 -0.0420197 -0.0236063c-0.019248,-0.010811 -0.0391299,-0.0204843 -0.0595276,-0.0289331 -0.0202992,-0.00841339 -0.0410827,-0.0156378 -0.0622283,-0.0216142l-0.0462874 -0.0130787 0 -0.140311c0,-0.0176575 -0.00699213,-0.0343071 -0.0194646,-0.0467795 -0.0124764,-0.0124764 -0.029126,-0.0194685 -0.0467835,-0.0194685l-0.0794961 0c-0.0176614,0 -0.034311,0.00699213 -0.0467874,0.0194685 -0.0124724,0.0124724 -0.0194646,0.029122 -0.0194646,0.0467795l0 0.140311 -0.0462913 0.0130787c-0.0211378,0.0059685 -0.0419134,0.0131969 -0.0622047,0.0216024 -0.0204016,0.00845276 -0.0402913,0.0181299 -0.0595433,0.0289449l-0.0420157 0.0236024 -0.099374 -0.0993701c-0.0124843,-0.0124843 -0.0291929,-0.0193268 -0.0468386,-0.0193268 -0.0176417,0 -0.0343504,0.00683858 -0.0468386,0.0193268l-0.0562087 0.0562126c-0.0111063,0.0111102 -0.017748,0.0255551 -0.0190787,0.0410315zm0.584394 0.0872953c0.105142,0 0.200335,0.042626 0.269248,0.111531 0.0689055,0.0689094 0.111531,0.164106 0.111531,0.269248 0,0.105142 -0.042626,0.200343 -0.111531,0.269248 -0.0689134,0.0689094 -0.164106,0.111531 -0.269248,0.111531 -0.105142,0 -0.200343,-0.042622 -0.269248,-0.111531 -0.0689094,-0.0689055 -0.111531,-0.164106 -0.111531,-0.269248 0,-0.105142 0.042622,-0.200339 0.111531,-0.269248 0.0689055,-0.0689055 0.164106,-0.111531 0.269248,-0.111531z"/>
  <path class="fil1" d="M1.98868 1.33219l0 0.00581496c-3.93701e-006,0.0175787 0.00660236,0.0343622 0.0190748,0.0468307l0.0993701 0.0993701 -0.0236024 0.0420157c-0.010811,0.019248 -0.0204843,0.0391299 -0.0289331,0.0595236 -0.00841339,0.0202992 -0.0156417,0.0410827 -0.0216142,0.0622283l-0.0130787 0.0462913 -0.140311 0c-0.0176575,0 -0.0343071,0.00699213 -0.0467795,0.0194646 -0.0124764,0.0124764 -0.0194685,0.029126 -0.0194685,0.0467874l0 0.0794961c0,0.0176575 0.00699213,0.0343071 0.0194685,0.0467835 0.0124724,0.0124724 0.029122,0.0194646 0.0467795,0.0194646l0.140307 0 0.0130787 0.0462874c0.00597244,0.0211378 0.0132047,0.0419134 0.0216102,0.0622047 0.00845276,0.0204055 0.0181299,0.0402953 0.0289449,0.0595512l0.0236024 0.0420157 -0.099374 0.0993701c-0.0124843,0.0124843 -0.0193268,0.0291929 -0.0193268,0.0468386 0,0.0176417 0.00684252,0.0343543 0.0193307,0.0468386l0.0562087 0.0562126c0.0124882,0.0124882 0.0291969,0.0193268 0.0468386,0.0193268 0.0176457,0 0.0343543,-0.00684252 0.0468386,-0.0193268l0.0993701 -0.0993701 0.0420157 0.0236063c0.019252,0.010815 0.0391378,0.0204921 0.0595354,0.0289409 0.0202992,0.00840945 0.0410748,0.0156339 0.0622165,0.0216102l0.0462913 0.0130787 0 0.140307c0,0.0176575 0.00699213,0.0343071 0.0194646,0.0467795 0.0124764,0.0124764 0.029126,0.0194685 0.0467874,0.0194685l0.0794961 0c0.0176575,0 0.0343071,-0.00699213 0.0467835,-0.0194724 0.0124724,-0.0124724 0.0194646,-0.0291181 0.0194646,-0.0467756l0 -0.140307 0.0462874 -0.0130787c0.0211378,-0.00597638 0.0419173,-0.0132008 0.0622126,-0.0216102 0.0204055,-0.00845276 0.0402953,-0.0181299 0.0595472,-0.0289449l0.0420157 -0.0236024 0.0993661 0.0993701c0.0124724,0.0124724 0.0292559,0.0190787 0.0468307,0.0190787l0.00581496 0c0.0154764,-0.00133465 0.0299252,-0.00797638 0.0410315,-0.0190827l0.0562126 -0.0562087c0.0124843,-0.0124843 0.0193268,-0.0291969 0.0193268,-0.0468386 0,-0.0176457 -0.00684252,-0.0343543 -0.0193268,-0.0468386l-0.0993701 -0.0993701 0.0236024 -0.0420157c0.010811,-0.019248 0.0204921,-0.0391339 0.0289409,-0.0595315 0.00840945,-0.0202953 0.0156378,-0.0410787 0.0216102,-0.0622205l0.0130787 -0.0462913 0.140311 0c0.0176575,0 0.0343031,-0.00699213 0.0467756,-0.0194646 0.0124803,-0.0124764 0.0194724,-0.029126 0.0194724,-0.0467835l0 -0.0794961c0,-0.0176614 -0.00699213,-0.034311 -0.0194685,-0.0467874 -0.0124724,-0.0124724 -0.029122,-0.0194646 -0.0467795,-0.0194646l-0.140315 0 -0.0130787 -0.0462913c-0.00597244,-0.0211417 -0.0131969,-0.0419252 -0.0216063,-0.0622205 -0.00845276,-0.0203976 -0.0181299,-0.0402795 -0.0289409,-0.0595315l-0.0236024 -0.0420157 0.0993701 -0.0993701c0.0124843,-0.0124843 0.0193268,-0.0291929 0.0193268,-0.0468386 0,-0.0176417 -0.00683858,-0.0343504 -0.0193268,-0.0468346l-0.0562126 -0.0562126c-0.0124843,-0.0124882 -0.0291969,-0.0193307 -0.0468386,-0.0193307 -0.0176417,0 -0.0343543,0.00684252 -0.0468386,0.0193268l-0.0993661 0.099374 -0.0420197 -0.0236063c-0.019248,-0.010811 -0.0391299,-0.0204843 -0.0595276,-0.0289331 -0.0202992,-0.00841339 -0.0410827,-0.0156378 -0.0622283,-0.0216142l-0.0462874 -0.0130787 0 -0.140311c0,-0.0176575 -0.00699213,-0.0343071 -0.0194646,-0.0467795 -0.0124764,-0.0124764 -0.029126,-0.0194685 -0.0467835,-0.0194685l-0.0794961 0c-0.0176614,0 -0.034311,0.00699213 -0.0467874,0.0194685 -0.0124724,0.0124724 -0.0194646,0.029122 -0.0194646,0.0467795l0 0.140311 -0.0462913 0.0130787c-0.0211378,0.0059685 -0.0419134,0.0131969 -0.0622047,0.0216024 -0.0204016,0.00845276 -0.0402913,0.0181299 -0.0595433,0.0289449l-0.0420157 0.0236024 -0.099374 -0.0993701c-0.0124843,-0.0124843 -0.0291929,-0.0193268 -0.0468386,-0.0193268 -0.0176417,0 -0.0343504,0.00683858 -0.0468386,0.0193268l-0.0562087 0.0562126c-0.0111063,0.0111102 -0.017748,0.0255551 -0.0190787,0.0410315zm0.584394 0.0872953c0.105142,0 0.200335,0.042626 0.269248,0.111531 0.0689055,0.0689094 0.111531,0.164106 0.111531,0.269248 0,0.105142 -0.042626,0.200343 -0.111531,0.269248 -0.0689134,0.0689094 -0.164106,0.111531 -0.269248,0.111531 -0.105142,0 -0.200343,-0.042622 -0.269248,-0.111531 -0.0689094,-0.0689055 -0.111531,-0.164106 -0.111531,-0.269248 0,-0.105142 0.042622,-0.200339 0.111531,-0.269248 0.0689055,-0.0689055 0.164106,-0.111531 0.269248,-0.111531z"/>
 </g>
</svg>
