<?xml version="1.0" encoding="iso-8859-1"?>
<!-- Generator: Adobe Illustrator 22.0.1, SVG Export Plug-In . SVG Version: 6.00 Build 0)  -->
<svg version="1.1" id="Layer_1" xmlns="http://www.w3.org/2000/svg" xmlns:xlink="http://www.w3.org/1999/xlink" x="0px" y="0px"
	 viewBox="0 0 2048 2048" style="enable-background:new 0 0 2048 2048;" xml:space="preserve">
<g>
	<rect x="452.624" y="256" style="fill:#465A65;" width="1142.753" height="1536"/>
	<path style="fill:#CFD8DD;" d="M1635.022,1009.399H412.978c-33.137,0-60-26.863-60-60V707.3c0-33.137,26.863-60,60-60h1222.043
		c33.137,0,60,26.863,60,60v242.099C1695.022,982.536,1668.159,1009.399,1635.022,1009.399z"/>
	<path style="fill:#CFD8DD;" d="M1635.022,1792H412.978c-33.137,0-60-26.863-60-60v-242.099c0-33.137,26.863-60,60-60h1222.043
		c33.137,0,60,26.863,60,60V1732C1695.022,1765.137,1668.159,1792,1635.022,1792z"/>
	<path style="fill:#CFD8DD;" d="M1635.022,1400.7H412.978c-33.137,0-60-26.863-60-60v-242.099c0-33.137,26.863-60,60-60h1222.043
		c33.137,0,60,26.863,60,60V1340.7C1695.022,1373.837,1668.159,1400.7,1635.022,1400.7z"/>
	<path style="fill:#CFD8DD;" d="M1635.022,618.099H412.978c-33.137,0-60-26.863-60-60V316c0-33.137,26.863-60,60-60h1222.043
		c33.137,0,60,26.863,60,60v242.099C1695.022,591.236,1668.159,618.099,1635.022,618.099z"/>
	<circle style="fill:#465A65;" cx="1489.19" cy="1610.951" r="60.097"/>
	<circle style="fill:#465A65;" cx="1280.708" cy="1610.951" r="60.097"/>
	<circle style="fill:#465A65;" cx="1072.226" cy="1610.951" r="60.097"/>
	<g>
		<g>
			<path style="fill:#465A65;" d="M862.911,1587.787H522.075c-12.902,0-23.361-10.459-23.361-23.361v0
				c0-12.902,10.459-23.361,23.361-23.361h340.837c12.902,0,23.361,10.459,23.361,23.361v0
				C886.272,1577.328,875.813,1587.787,862.911,1587.787z"/>
		</g>
	</g>
	<g>
		<g>
			<path style="fill:#465A65;" d="M862.911,1680.837H522.075c-12.902,0-23.361-10.459-23.361-23.361v0
				c0-12.902,10.459-23.361,23.361-23.361h340.837c12.902,0,23.361,10.459,23.361,23.361v0
				C886.272,1670.377,875.813,1680.837,862.911,1680.837z"/>
		</g>
	</g>
	<circle style="fill:#465A65;" cx="1489.19" cy="828.35" r="60.097"/>
	<circle style="fill:#465A65;" cx="1280.708" cy="828.35" r="60.097"/>
	<circle style="fill:#465A65;" cx="1072.226" cy="828.35" r="60.097"/>
	<g>
		<g>
			<path style="fill:#465A65;" d="M862.911,805.186H522.075c-12.902,0-23.361-10.459-23.361-23.361v0
				c0-12.902,10.459-23.361,23.361-23.361h340.837c12.902,0,23.361,10.459,23.361,23.361v0
				C886.272,794.727,875.813,805.186,862.911,805.186z"/>
		</g>
	</g>
	<g>
		<g>
			<path style="fill:#465A65;" d="M862.911,898.236H522.075c-12.902,0-23.361-10.459-23.361-23.361v0
				c0-12.902,10.459-23.361,23.361-23.361h340.837c12.902,0,23.361,10.459,23.361,23.361v0
				C886.272,887.777,875.813,898.236,862.911,898.236z"/>
		</g>
	</g>
	<circle style="fill:#465A65;" cx="1489.19" cy="1219.65" r="60.097"/>
	<circle style="fill:#465A65;" cx="1280.708" cy="1219.65" r="60.097"/>
	<circle style="fill:#465A65;" cx="1072.226" cy="1219.65" r="60.097"/>
	<g>
		<g>
			<path style="fill:#465A65;" d="M862.911,1196.487H522.075c-12.902,0-23.361-10.459-23.361-23.361l0,0
				c0-12.902,10.459-23.361,23.361-23.361h340.837c12.902,0,23.361,10.459,23.361,23.361l0,0
				C886.272,1186.028,875.813,1196.487,862.911,1196.487z"/>
		</g>
	</g>
	<g>
		<g>
			<path style="fill:#465A65;" d="M862.911,1289.536H522.075c-12.902,0-23.361-10.459-23.361-23.361l0,0
				c0-12.902,10.459-23.361,23.361-23.361h340.837c12.902,0,23.361,10.459,23.361,23.361l0,0
				C886.272,1279.077,875.813,1289.536,862.911,1289.536z"/>
		</g>
	</g>
	<circle style="fill:#465A65;" cx="1489.19" cy="1219.65" r="60.097"/>
	<circle style="fill:#465A65;" cx="1280.708" cy="1219.65" r="60.097"/>
	<circle style="fill:#465A65;" cx="1072.226" cy="1219.65" r="60.097"/>
	<g>
		<g>
			<path style="fill:#465A65;" d="M862.911,1196.487H522.075c-12.902,0-23.361-10.459-23.361-23.361l0,0
				c0-12.902,10.459-23.361,23.361-23.361h340.837c12.902,0,23.361,10.459,23.361,23.361l0,0
				C886.272,1186.028,875.813,1196.487,862.911,1196.487z"/>
		</g>
	</g>
	<g>
		<g>
			<path style="fill:#465A65;" d="M862.911,1289.536H522.075c-12.902,0-23.361-10.459-23.361-23.361l0,0
				c0-12.902,10.459-23.361,23.361-23.361h340.837c12.902,0,23.361,10.459,23.361,23.361l0,0
				C886.272,1279.077,875.813,1289.536,862.911,1289.536z"/>
		</g>
	</g>
	<circle style="fill:#465A65;" cx="1489.19" cy="437.049" r="60.097"/>
	<circle style="fill:#465A65;" cx="1280.708" cy="437.049" r="60.097"/>
	<circle style="fill:#465A65;" cx="1072.226" cy="437.049" r="60.097"/>
	<g>
		<g>
			<path style="fill:#465A65;" d="M862.911,413.886H522.075c-12.902,0-23.361-10.459-23.361-23.361v0
				c0-12.902,10.459-23.361,23.361-23.361h340.837c12.902,0,23.361,10.459,23.361,23.361v0
				C886.272,403.427,875.813,413.886,862.911,413.886z"/>
		</g>
	</g>
	<g>
		<g>
			<path style="fill:#465A65;" d="M862.911,506.935H522.075c-12.902,0-23.361-10.459-23.361-23.361v0
				c0-12.902,10.459-23.361,23.361-23.361h340.837c12.902,0,23.361,10.459,23.361,23.361v0
				C886.272,496.476,875.813,506.935,862.911,506.935z"/>
		</g>
	</g>
</g>
</svg>
